<?xml version="1.0" standalone="no"?>
<!DOCTYPE svg PUBLIC "-//W3C//DTD SVG 20010904//EN"
 "http://www.w3.org/TR/2001/REC-SVG-20010904/DTD/svg10.dtd">
<svg version="1.0" xmlns="http://www.w3.org/2000/svg"
 width="762.000000pt" height="775.000000pt" viewBox="0 0 762.000000 775.000000"
 preserveAspectRatio="xMidYMid meet">
<metadata>
Created by potrace 1.15, written by Peter Selinger 2001-2017
</metadata>
<g transform="translate(0.000000,775.000000) scale(0.100000,-0.100000)"
fill="#000000" stroke="none">
<path d="M170 7333 c-40 -14 -40 -10 -40 -754 l0 -718 26 -20 c25 -20 39 -21
203 -20 97 0 168 4 158 8 -18 6 -18 7 0 23 23 20 66 43 76 40 4 -1 7 18 7 43
l0 45 -150 0 -150 0 0 595 0 595 150 0 150 0 0 85 0 85 -207 -1 c-115 0 -215
-3 -223 -6z"/>
<path d="M2142 7258 c3 -7 36 -129 74 -271 l69 -258 54 3 54 3 51 198 52 198
49 -201 49 -200 58 0 c32 0 58 2 58 5 0 6 127 488 136 518 5 16 0 18 -48 15
l-53 -3 -45 -188 -45 -188 -45 188 -45 188 -70 0 -69 0 -45 -183 -46 -183 -45
183 -46 183 -53 3 c-41 2 -52 0 -49 -10z"/>
<path d="M2870 7225 l0 -45 80 0 80 0 0 -225 0 -225 50 0 50 0 0 225 0 225 80
0 80 0 0 45 0 45 -210 0 -210 0 0 -45z"/>
<path d="M3360 7000 l0 -270 50 0 50 0 1 213 1 212 47 -185 c26 -102 51 -197
54 -212 7 -26 11 -28 62 -28 51 0 55 2 62 28 3 15 28 110 54 212 l47 185 1
-212 1 -213 50 0 50 0 0 270 0 270 -85 0 c-84 0 -85 0 -91 -27 -4 -16 -26 -99
-48 -185 l-41 -157 -39 152 c-22 84 -43 167 -48 185 l-9 32 -84 0 -85 0 0
-270z"/>
<path d="M4321 7248 c-5 -13 -46 -113 -91 -223 -45 -110 -90 -221 -101 -247
l-19 -48 54 0 54 0 22 60 22 60 113 0 113 0 22 -60 22 -60 54 0 54 0 -17 43
c-9 23 -58 143 -109 267 l-92 225 -46 3 c-40 3 -47 0 -55 -20z m129 -305 c0
-2 -34 -3 -76 -3 -68 0 -75 2 -69 18 4 9 21 54 38 100 l31 82 38 -97 c21 -53
38 -98 38 -100z"/>
<path d="M4700 7000 l0 -270 50 0 50 0 0 270 0 270 -50 0 -50 0 0 -270z"/>
<path d="M6468 7230 c-44 -28 -48 -33 -48 -70 0 -36 -3 -40 -25 -40 -22 0 -25
-4 -25 -40 0 -36 3 -40 24 -40 l24 0 4 -135 c3 -120 5 -137 24 -155 24 -24 78
-35 128 -26 34 6 36 9 36 45 l0 38 -42 -1 -43 -1 -3 118 -3 117 41 0 40 0 0
40 c0 40 0 40 -40 40 l-39 0 -3 70 -3 69 -47 -29z"/>
<path d="M5205 7116 c-71 -31 -111 -117 -102 -217 10 -108 65 -167 164 -176
81 -6 139 24 172 90 13 26 22 49 20 51 -2 2 -25 7 -51 11 -45 7 -47 6 -54 -19
-14 -56 -74 -72 -120 -33 -55 48 -40 208 20 223 39 9 75 -4 88 -32 11 -24 15
-25 57 -19 26 4 48 8 50 10 2 2 -8 24 -23 48 -18 32 -37 49 -66 61 -48 19
-114 20 -155 2z"/>
<path d="M5600 7113 c-31 -16 -80 -73 -80 -94 0 -4 18 -10 40 -14 36 -6 44 -4
65 19 43 46 131 27 123 -27 -2 -18 -16 -24 -74 -38 -100 -22 -133 -37 -149
-70 -66 -127 112 -230 221 -128 l22 20 6 -25 c6 -24 11 -26 56 -26 l49 0 -15
35 c-9 23 -14 72 -14 154 0 130 -8 161 -49 187 -39 26 -157 30 -201 7z"/>
<path d="M6130 7119 c-14 -6 -35 -20 -47 -31 l-23 -21 0 26 c0 26 -2 27 -50
27 l-50 0 0 -195 0 -195 49 0 49 0 4 136 c3 135 3 136 31 160 32 27 74 31 103
10 17 -13 19 -29 22 -160 l3 -146 50 0 49 0 0 151 c0 172 -10 207 -65 233 -37
18 -87 20 -125 5z"/>
<path d="M6734 7111 c-148 -67 -134 -340 19 -382 56 -15 132 -6 165 18 15 11
37 35 50 54 l23 34 -46 9 c-42 8 -48 6 -70 -18 -44 -48 -125 -21 -141 47 l-6
27 136 0 136 0 0 28 c0 47 -28 127 -52 150 -56 52 -143 65 -214 33z"/>
<path d="M4910 6925 l0 -195 50 0 50 0 0 195 0 195 -50 0 -50 0 0 -195z"/>
<path d="M470 6588 c0 -243 2 -439 5 -436 3 2 63 112 135 243 l130 238 0 199
0 198 -135 0 -135 0 0 -442z"/>
<path d="M2253 6349 c-30 -15 -48 -33 -62 -63 -26 -54 -26 -62 2 -70 37 -10
47 -7 47 13 0 37 42 73 92 78 42 5 50 3 78 -25 59 -59 28 -129 -105 -241 -92
-78 -131 -127 -141 -179 l-6 -32 181 0 181 0 0 35 0 35 -130 0 c-71 0 -130 4
-130 9 0 5 31 34 69 65 131 107 181 176 181 248 0 114 -142 184 -257 127z"/>
<path d="M2692 6353 c-43 -21 -68 -58 -87 -129 -28 -110 -12 -281 33 -344 57
-79 206 -79 262 0 65 91 65 339 0 430 -40 56 -139 77 -208 43z m136 -68 c37
-31 52 -87 52 -190 0 -103 -15 -159 -52 -190 -42 -35 -82 -33 -123 8 -27 27
-34 44 -40 91 -9 71 -1 199 15 244 22 61 97 80 148 37z"/>
<path d="M3175 6323 c-22 -25 -56 -55 -77 -66 -32 -18 -38 -27 -38 -55 l0 -33
33 17 c17 9 47 27 65 41 l32 24 0 -210 0 -211 35 0 35 0 0 270 0 270 -22 -1
c-14 -1 -39 -19 -63 -46z"/>
<path d="M3520 6352 c-83 -41 -105 -147 -42 -203 l30 -27 -29 -21 c-64 -47
-77 -143 -29 -211 64 -90 226 -90 290 -1 46 65 35 160 -24 207 l-32 26 33 33
c26 26 33 41 33 73 0 77 -71 142 -155 142 -22 0 -56 -8 -75 -18z m135 -67 c52
-51 15 -135 -60 -135 -46 0 -85 36 -85 80 0 44 39 80 85 80 25 0 44 -8 60 -25z
m-6 -209 c77 -41 61 -176 -23 -192 -73 -13 -124 19 -133 82 -12 95 71 153 156
110z"/>
<path d="M160 4703 c-40 -14 -40 -10 -40 -754 l0 -718 26 -20 c25 -20 39 -21
203 -20 97 0 168 4 158 8 -18 6 -18 7 0 23 23 20 66 43 76 40 4 -1 7 18 7 43
l0 45 -150 0 -150 0 0 595 0 595 150 0 150 0 0 85 0 85 -207 -1 c-115 0 -215
-3 -223 -6z"/>
<path d="M2232 4668 c3 -7 36 -129 74 -271 l69 -258 54 3 54 3 51 198 52 198
49 -201 49 -200 58 0 c32 0 58 2 58 5 0 6 127 488 136 518 5 16 0 18 -48 15
l-53 -3 -45 -188 -45 -188 -45 188 -45 188 -70 0 -69 0 -45 -183 -46 -183 -45
183 -46 183 -53 3 c-41 2 -52 0 -49 -10z"/>
<path d="M2960 4635 l0 -45 80 0 80 0 0 -225 0 -225 50 0 50 0 0 225 0 225 80
0 80 0 0 45 0 45 -210 0 -210 0 0 -45z"/>
<path d="M3450 4410 l0 -270 50 0 50 0 1 213 1 212 47 -185 c26 -102 51 -197
54 -212 7 -26 11 -28 62 -28 51 0 55 2 62 28 3 15 28 110 54 212 l47 185 1
-212 1 -213 50 0 50 0 0 270 0 270 -85 0 c-84 0 -85 0 -91 -27 -4 -16 -26 -99
-48 -185 l-41 -157 -39 152 c-22 84 -43 167 -48 185 l-9 32 -84 0 -85 0 0
-270z"/>
<path d="M4411 4658 c-5 -13 -46 -113 -91 -223 -45 -110 -90 -221 -101 -247
l-19 -48 54 0 54 0 22 60 22 60 113 0 113 0 22 -60 22 -60 54 0 54 0 -17 43
c-9 23 -58 143 -109 267 l-92 225 -46 3 c-40 3 -47 0 -55 -20z m129 -305 c0
-2 -34 -3 -76 -3 -68 0 -75 2 -69 18 4 9 21 54 38 100 l31 82 38 -97 c21 -53
38 -98 38 -100z"/>
<path d="M4790 4410 l0 -270 50 0 50 0 0 270 0 270 -50 0 -50 0 0 -270z"/>
<path d="M6558 4640 c-44 -28 -48 -33 -48 -70 0 -36 -3 -40 -25 -40 -22 0 -25
-4 -25 -40 0 -36 3 -40 24 -40 l24 0 4 -135 c3 -120 5 -137 24 -155 24 -24 78
-35 128 -26 34 6 36 9 36 45 l0 38 -42 -1 -43 -1 -3 118 -3 117 41 0 40 0 0
40 c0 40 0 40 -40 40 l-39 0 -3 70 -3 69 -47 -29z"/>
<path d="M5295 4526 c-71 -31 -111 -117 -102 -217 10 -108 65 -167 164 -176
81 -6 139 24 172 90 13 26 22 49 20 51 -2 2 -25 7 -51 11 -45 7 -47 6 -54 -19
-14 -56 -74 -72 -120 -33 -55 48 -40 208 20 223 39 9 75 -4 88 -32 11 -24 15
-25 57 -19 26 4 48 8 50 10 2 2 -8 24 -23 48 -18 32 -37 49 -66 61 -48 19
-114 20 -155 2z"/>
<path d="M5690 4523 c-31 -16 -80 -73 -80 -94 0 -4 18 -10 40 -14 36 -6 44 -4
65 19 43 46 131 27 123 -27 -2 -18 -16 -24 -74 -38 -100 -22 -133 -37 -149
-70 -66 -127 112 -230 221 -128 l22 20 6 -25 c6 -24 11 -26 56 -26 l49 0 -15
35 c-9 23 -14 72 -14 154 0 130 -8 161 -49 187 -39 26 -157 30 -201 7z"/>
<path d="M6220 4529 c-14 -6 -35 -20 -47 -31 l-23 -21 0 26 c0 26 -2 27 -50
27 l-50 0 0 -195 0 -195 49 0 49 0 4 136 c3 135 3 136 31 160 32 27 74 31 103
10 17 -13 19 -29 22 -160 l3 -146 50 0 49 0 0 151 c0 172 -10 207 -65 233 -37
18 -87 20 -125 5z"/>
<path d="M6824 4521 c-148 -67 -134 -340 19 -382 56 -15 132 -6 165 18 15 11
37 35 50 54 l23 34 -46 9 c-42 8 -48 6 -70 -18 -44 -48 -125 -21 -141 47 l-6
27 136 0 136 0 0 28 c0 47 -28 127 -52 150 -56 52 -143 65 -214 33z"/>
<path d="M5000 4335 l0 -195 50 0 50 0 0 195 0 195 -50 0 -50 0 0 -195z"/>
<path d="M460 3958 c0 -243 2 -439 5 -436 3 2 63 112 135 243 l130 238 0 199
0 198 -135 0 -135 0 0 -442z"/>
<path d="M2343 3759 c-30 -15 -48 -33 -62 -63 -26 -54 -26 -62 2 -70 37 -10
47 -7 47 13 0 37 42 73 92 78 42 5 50 3 78 -25 59 -59 28 -129 -105 -241 -92
-78 -131 -127 -141 -179 l-6 -32 181 0 181 0 0 35 0 35 -130 0 c-71 0 -130 4
-130 9 0 5 31 34 69 65 131 107 181 176 181 248 0 114 -142 184 -257 127z"/>
<path d="M2782 3763 c-43 -21 -68 -58 -87 -129 -28 -110 -12 -281 33 -344 57
-79 206 -79 262 0 65 91 65 339 0 430 -40 56 -139 77 -208 43z m136 -68 c37
-31 52 -87 52 -190 0 -103 -15 -159 -52 -190 -42 -35 -82 -33 -123 8 -27 27
-34 44 -40 91 -9 71 -1 199 15 244 22 61 97 80 148 37z"/>
<path d="M3265 3733 c-22 -25 -56 -55 -77 -66 -32 -18 -38 -27 -38 -55 l0 -33
33 17 c17 9 47 27 65 41 l32 24 0 -210 0 -211 35 0 35 0 0 270 0 270 -22 -1
c-14 -1 -39 -19 -63 -46z"/>
<path d="M3610 3762 c-83 -41 -105 -147 -42 -203 l30 -27 -29 -21 c-64 -47
-77 -143 -29 -211 64 -90 226 -90 290 -1 46 65 35 160 -24 207 l-32 26 33 33
c26 26 33 41 33 73 0 77 -71 142 -155 142 -22 0 -56 -8 -75 -18z m135 -67 c52
-51 15 -135 -60 -135 -46 0 -85 36 -85 80 0 71 94 107 145 55z m-6 -209 c77
-41 61 -176 -23 -192 -73 -13 -124 19 -133 82 -12 95 71 153 156 110z"/>
<path d="M160 2073 c-40 -14 -40 -10 -40 -754 l0 -718 26 -20 c25 -20 39 -21
203 -20 97 0 168 4 158 8 -18 6 -18 7 0 23 23 20 66 43 76 40 4 -1 7 18 7 43
l0 45 -150 0 -150 0 0 595 0 595 150 0 150 0 0 85 0 85 -207 -1 c-115 0 -215
-3 -223 -6z"/>
<path d="M460 1328 c0 -243 2 -439 5 -436 3 2 63 112 135 243 l130 238 0 199
0 198 -135 0 -135 0 0 -442z"/>
</g>
</svg>
